<svg width="37" height="37" viewBox="0 0 37 37" fill="none" xmlns="http://www.w3.org/2000/svg">
<path id="Vector" d="M29.3333 29.3333C27.2983 29.3333 25.6667 30.965 25.6667 33C25.6667 33.9725 26.053 34.9051 26.7406 35.5927C27.4282 36.2804 28.3609 36.6667 29.3333 36.6667C30.3058 36.6667 31.2384 36.2804 31.9261 35.5927C32.6137 34.9051 33 33.9725 33 33C33 32.0275 32.6137 31.0949 31.9261 30.4073C31.2384 29.7196 30.3058 29.3333 29.3333 29.3333ZM0 0V3.66667H3.66667L10.2667 17.5817L7.77333 22.0733C7.49833 22.5867 7.33333 23.1917 7.33333 23.8333C7.33333 24.8058 7.71964 25.7384 8.40728 26.4261C9.09491 27.1137 10.0275 27.5 11 27.5H33V23.8333H11.77C11.6484 23.8333 11.5319 23.785 11.4459 23.6991C11.36 23.6131 11.3117 23.4966 11.3117 23.375C11.3117 23.2833 11.33 23.21 11.3667 23.155L13.0167 20.1667H26.675C28.05 20.1667 29.26 19.3967 29.8833 18.2783L36.4467 6.41667C36.575 6.12333 36.6667 5.81167 36.6667 5.5C36.6667 5.01377 36.4735 4.54745 36.1297 4.20364C35.7859 3.85982 35.3196 3.66667 34.8333 3.66667H7.71833L5.995 0M11 29.3333C8.965 29.3333 7.33333 30.965 7.33333 33C7.33333 33.9725 7.71964 34.9051 8.40728 35.5927C9.09491 36.2804 10.0275 36.6667 11 36.6667C11.9725 36.6667 12.9051 36.2804 13.5927 35.5927C14.2804 34.9051 14.6667 33.9725 14.6667 33C14.6667 32.0275 14.2804 31.0949 13.5927 30.4073C12.9051 29.7196 11.9725 29.3333 11 29.3333Z" fill="white"/>
</svg>
